<svg aria-hidden="true" style="position: absolute; width: 0; height: 0; overflow: hidden;" version="1.1" xmlns="http://www.w3.org/2000/svg" xmlns:xlink="http://www.w3.org/1999/xlink">
<defs>
<symbol id="icon_video" viewBox="0 0 32 32">
  <path d="M30 6h-0.887c-0.525 0-1.029 0.207-1.404 0.576l-2.709 2.672v-1.248c0-1.657-1.344-3-3-3h-19c-1.654 0-3 1.345-3 3v16c0 1.656 1.343 3 3 3h19c1.656 0 3-1.344 3-3v-1.221l2.709 2.672c0.375 0.369 0.879 0.576 1.404 0.576h0.887c1.104 0 2-0.895 2-2v-16.027c0-1.105-0.896-2-2-2zM3 25c-0.552 0-1-0.449-1-1v-16c0-0.553 0.447-1 1-1h19c0.551 0 1 0.448 1 1v16c0 0.551-0.449 1-1 1h-19zM30 24.027h-1l-4-4v-0.027l-1-1v-6l5-5h1v16.027z"></path>
</symbol>
<symbol id="icon_coffee" viewBox="0 0 24 24">
  <path d="M19 15v-6c0.829 0 1.577 0.335 2.121 0.879s0.879 1.292 0.879 2.121-0.335 1.577-0.879 2.121-1.292 0.879-2.121 0.879zM2 7c-0.552 0-1 0.448-1 1v9c0 1.38 0.561 2.632 1.464 3.536s2.156 1.464 3.536 1.464h8c1.38 0 2.632-0.561 3.536-1.464s1.464-2.156 1.464-3.536c1.38 0 2.632-0.561 3.536-1.464s1.464-2.156 1.464-3.536-0.561-2.632-1.464-3.536-2.156-1.464-3.536-1.464h-1zM3 9h14v8c0 0.829-0.335 1.577-0.879 2.121s-1.292 0.879-2.121 0.879h-8c-0.829 0-1.577-0.335-2.121-0.879s-0.879-1.292-0.879-2.121zM5 1v3c0 0.552 0.448 1 1 1s1-0.448 1-1v-3c0-0.552-0.448-1-1-1s-1 0.448-1 1zM9 1v3c0 0.552 0.448 1 1 1s1-0.448 1-1v-3c0-0.552-0.448-1-1-1s-1 0.448-1 1zM13 1v3c0 0.552 0.448 1 1 1s1-0.448 1-1v-3c0-0.552-0.448-1-1-1s-1 0.448-1 1z"></path>
</symbol>
<symbol id="icon_maximize" viewBox="0 0 24 24">
  <path d="M18.586 4l-5.293 5.293c-0.391 0.391-0.391 1.024 0 1.414s1.024 0.391 1.414 0l5.293-5.293v3.586c0 0.552 0.448 1 1 1s1-0.448 1-1v-6c0-0.136-0.027-0.265-0.076-0.383s-0.121-0.228-0.216-0.323c-0.001-0.001-0.001-0.001-0.002-0.002-0.092-0.092-0.202-0.166-0.323-0.216-0.118-0.049-0.247-0.076-0.383-0.076h-6c-0.552 0-1 0.448-1 1s0.448 1 1 1zM5.414 20l5.293-5.293c0.391-0.391 0.391-1.024 0-1.414s-1.024-0.391-1.414 0l-5.293 5.293v-3.586c0-0.552-0.448-1-1-1s-1 0.448-1 1v6c0 0.552 0.448 1 1 1h6c0.552 0 1-0.448 1-1s-0.448-1-1-1z"></path>
</symbol>
<symbol id="icon_users" viewBox="0 0 24 24">
  <path d="M18 21v-2c0-1.38-0.561-2.632-1.464-3.536s-2.156-1.464-3.536-1.464h-8c-1.38 0-2.632 0.561-3.536 1.464s-1.464 2.156-1.464 3.536v2c0 0.552 0.448 1 1 1s1-0.448 1-1v-2c0-0.829 0.335-1.577 0.879-2.121s1.292-0.879 2.121-0.879h8c0.829 0 1.577 0.335 2.121 0.879s0.879 1.292 0.879 2.121v2c0 0.552 0.448 1 1 1s1-0.448 1-1zM14 7c0-1.38-0.561-2.632-1.464-3.536s-2.156-1.464-3.536-1.464-2.632 0.561-3.536 1.464-1.464 2.156-1.464 3.536 0.561 2.632 1.464 3.536 2.156 1.464 3.536 1.464 2.632-0.561 3.536-1.464 1.464-2.156 1.464-3.536zM12 7c0 0.829-0.335 1.577-0.879 2.121s-1.292 0.879-2.121 0.879-1.577-0.335-2.121-0.879-0.879-1.292-0.879-2.121 0.335-1.577 0.879-2.121 1.292-0.879 2.121-0.879 1.577 0.335 2.121 0.879 0.879 1.292 0.879 2.121zM24 21v-2c-0.001-1.245-0.457-2.385-1.215-3.261-0.652-0.753-1.528-1.311-2.529-1.576-0.534-0.141-1.081 0.177-1.222 0.711s0.177 1.081 0.711 1.222c0.607 0.161 1.136 0.498 1.528 0.952 0.454 0.526 0.726 1.206 0.727 1.952v2c0 0.552 0.448 1 1 1s1-0.448 1-1zM15.752 4.099c0.803 0.206 1.445 0.715 1.837 1.377s0.531 1.47 0.325 2.273c-0.176 0.688-0.575 1.256-1.105 1.652-0.314 0.235-0.675 0.409-1.063 0.511-0.534 0.14-0.854 0.687-0.713 1.221s0.687 0.854 1.221 0.713c0.637-0.167 1.232-0.455 1.752-0.844 0.884-0.66 1.552-1.613 1.845-2.758 0.342-1.337 0.11-2.689-0.542-3.788s-1.725-1.953-3.062-2.296c-0.535-0.137-1.080 0.186-1.217 0.721s0.186 1.080 0.721 1.217z"></path>
</symbol>
<symbol id="icon_whatsapp" viewBox="0 0 24 28">
  <path d="M15.391 15.219c0.266 0 2.812 1.328 2.922 1.516 0.031 0.078 0.031 0.172 0.031 0.234 0 0.391-0.125 0.828-0.266 1.188-0.359 0.875-1.813 1.437-2.703 1.437-0.75 0-2.297-0.656-2.969-0.969-2.234-1.016-3.625-2.75-4.969-4.734-0.594-0.875-1.125-1.953-1.109-3.031v-0.125c0.031-1.031 0.406-1.766 1.156-2.469 0.234-0.219 0.484-0.344 0.812-0.344 0.187 0 0.375 0.047 0.578 0.047 0.422 0 0.5 0.125 0.656 0.531 0.109 0.266 0.906 2.391 0.906 2.547 0 0.594-1.078 1.266-1.078 1.625 0 0.078 0.031 0.156 0.078 0.234 0.344 0.734 1 1.578 1.594 2.141 0.719 0.688 1.484 1.141 2.359 1.578 0.109 0.063 0.219 0.109 0.344 0.109 0.469 0 1.25-1.516 1.656-1.516zM12.219 23.5c5.406 0 9.812-4.406 9.812-9.812s-4.406-9.812-9.812-9.812-9.812 4.406-9.812 9.812c0 2.063 0.656 4.078 1.875 5.75l-1.234 3.641 3.781-1.203c1.594 1.047 3.484 1.625 5.391 1.625zM12.219 1.906c6.5 0 11.781 5.281 11.781 11.781s-5.281 11.781-11.781 11.781c-1.984 0-3.953-0.5-5.703-1.469l-6.516 2.094 2.125-6.328c-1.109-1.828-1.687-3.938-1.687-6.078 0-6.5 5.281-11.781 11.781-11.781z"></path>
</symbol>
<symbol id="icon_vk" viewBox="0 0 31 28">
  <path d="M29.953 8.125c0.234 0.641-0.5 2.141-2.344 4.594-3.031 4.031-3.359 3.656-0.859 5.984 2.406 2.234 2.906 3.313 2.984 3.453 0 0 1 1.75-1.109 1.766l-4 0.063c-0.859 0.172-2-0.609-2-0.609-1.5-1.031-2.906-3.703-4-3.359 0 0-1.125 0.359-1.094 2.766 0.016 0.516-0.234 0.797-0.234 0.797s-0.281 0.297-0.828 0.344h-1.797c-3.953 0.25-7.438-3.391-7.438-3.391s-3.813-3.938-7.156-11.797c-0.219-0.516 0.016-0.766 0.016-0.766s0.234-0.297 0.891-0.297l4.281-0.031c0.406 0.063 0.688 0.281 0.688 0.281s0.25 0.172 0.375 0.5c0.703 1.75 1.609 3.344 1.609 3.344 1.563 3.219 2.625 3.766 3.234 3.437 0 0 0.797-0.484 0.625-4.375-0.063-1.406-0.453-2.047-0.453-2.047-0.359-0.484-1.031-0.625-1.328-0.672-0.234-0.031 0.156-0.594 0.672-0.844 0.766-0.375 2.125-0.391 3.734-0.375 1.266 0.016 1.625 0.094 2.109 0.203 1.484 0.359 0.984 1.734 0.984 5.047 0 1.062-0.203 2.547 0.562 3.031 0.328 0.219 1.141 0.031 3.141-3.375 0 0 0.938-1.625 1.672-3.516 0.125-0.344 0.391-0.484 0.391-0.484s0.25-0.141 0.594-0.094l4.5-0.031c1.359-0.172 1.578 0.453 1.578 0.453z"></path>
</symbol>
<!-- <symbol id="icon_hotel" viewBox="0 0 50 50">
<path d="M12.691406 0L11.564453 2.3320312L9 2.6386719L10.949219 4.3613281L10.435547 7L12.691406 5.6816406L14.949219 7L14.435547 4.3613281L16.384766 2.6386719L13.820312 2.3320312L12.691406 0 z M 14.949219 7L10.435547 7L9.3007812 7C6.3730036 7 4 9.3730039 4 12.300781L4 45 A 1.0001 1.0001 0 0 0 5 46L45 46 A 1.0001 1.0001 0 0 0 46 45L46 12.300781C46 9.3730039 43.626997 7 40.699219 7L39.564453 7L35.050781 7L31.359375 7L26.845703 7L23.154297 7L18.640625 7L14.949219 7 z M 18.640625 7L20.896484 5.6816406L23.154297 7L22.640625 4.3613281L24.589844 2.6386719L22.025391 2.3320312L20.896484 0L19.769531 2.3320312L17.205078 2.6386719L19.154297 4.3613281L18.640625 7 z M 26.845703 7L29.103516 5.6816406L31.359375 7L30.845703 4.3613281L32.794922 2.6386719L30.230469 2.3320312L29.103516 0L27.974609 2.3320312L25.410156 2.6386719L27.359375 4.3613281L26.845703 7 z M 35.050781 7L37.308594 5.6816406L39.564453 7L39.050781 4.3613281L41 2.6386719L38.435547 2.3320312L37.308594 0L36.179688 2.3320312L33.615234 2.6386719L35.564453 4.3613281L35.050781 7 z M 9.3007812 9L40.699219 9C42.571441 9 44 10.428559 44 12.300781L44 44L29 44L29 36 A 1.0001 1.0001 0 0 0 28 35L22 35 A 1.0001 1.0001 0 0 0 21 36L21 44L6 44L6 12.300781C6 10.428559 7.4285592 9 9.3007812 9 z M 10 11 A 1.0001 1.0001 0 0 0 9 12L9 16 A 1.0001 1.0001 0 0 0 10 17L16 17 A 1.0001 1.0001 0 0 0 17 16L17 12 A 1.0001 1.0001 0 0 0 16 11L10 11 z M 22 11 A 1.0001 1.0001 0 0 0 21 12L21 16 A 1.0001 1.0001 0 0 0 22 17L28 17 A 1.0001 1.0001 0 0 0 29 16L29 12 A 1.0001 1.0001 0 0 0 28 11L22 11 z M 34 11 A 1.0001 1.0001 0 0 0 33 12L33 16 A 1.0001 1.0001 0 0 0 34 17L40 17 A 1.0001 1.0001 0 0 0 41 16L41 12 A 1.0001 1.0001 0 0 0 40 11L34 11 z M 11 13L15 13L15 15L11 15L11 13 z M 23 13L27 13L27 15L23 15L23 13 z M 35 13L39 13L39 15L35 15L35 13 z M 10 19 A 1.0001 1.0001 0 0 0 9 20L9 24 A 1.0001 1.0001 0 0 0 10 25L16 25 A 1.0001 1.0001 0 0 0 17 24L17 20 A 1.0001 1.0001 0 0 0 16 19L10 19 z M 22 19 A 1.0001 1.0001 0 0 0 21 20L21 24 A 1.0001 1.0001 0 0 0 22 25L28 25 A 1.0001 1.0001 0 0 0 29 24L29 20 A 1.0001 1.0001 0 0 0 28 19L22 19 z M 34 19 A 1.0001 1.0001 0 0 0 33 20L33 24 A 1.0001 1.0001 0 0 0 34 25L40 25 A 1.0001 1.0001 0 0 0 41 24L41 20 A 1.0001 1.0001 0 0 0 40 19L34 19 z M 11 21L15 21L15 23L11 23L11 21 z M 23 21L27 21L27 23L23 23L23 21 z M 35 21L39 21L39 23L35 23L35 21 z M 10 27 A 1.0001 1.0001 0 0 0 9 28L9 32 A 1.0001 1.0001 0 0 0 10 33L16 33 A 1.0001 1.0001 0 0 0 17 32L17 28 A 1.0001 1.0001 0 0 0 16 27L10 27 z M 22 27 A 1.0001 1.0001 0 0 0 21 28L21 32 A 1.0001 1.0001 0 0 0 22 33L28 33 A 1.0001 1.0001 0 0 0 29 32L29 28 A 1.0001 1.0001 0 0 0 28 27L22 27 z M 34 27 A 1.0001 1.0001 0 0 0 33 28L33 32 A 1.0001 1.0001 0 0 0 34 33L40 33 A 1.0001 1.0001 0 0 0 41 32L41 28 A 1.0001 1.0001 0 0 0 40 27L34 27 z M 11 29L15 29L15 31L11 31L11 29 z M 23 29L27 29L27 31L23 31L23 29 z M 35 29L39 29L39 31L35 31L35 29 z M 10 35 A 1.0001 1.0001 0 0 0 9 36L9 40 A 1.0001 1.0001 0 0 0 10 41L16 41 A 1.0001 1.0001 0 0 0 17 40L17 36 A 1.0001 1.0001 0 0 0 16 35L10 35 z M 34 35 A 1.0001 1.0001 0 0 0 33 36L33 40 A 1.0001 1.0001 0 0 0 34 41L40 41 A 1.0001 1.0001 0 0 0 41 40L41 36 A 1.0001 1.0001 0 0 0 40 35L34 35 z M 11 37L15 37L15 39L11 39L11 37 z M 23 37L27 37L27 44L23 44L23 37 z M 35 37L39 37L39 39L35 39L35 37 z"/>
</symbol> -->
<symbol id="icon_hotel" viewBox="0 0 873.33 388">
<defs>
    <style>
      .cls-1 {
        fill: #fff;
      }
    </style>
  </defs>
  <rect class="cls-1" x="6.17" y="337.67" width="270" height="6.83"/>
  <rect class="cls-1" x="596.83" y="337.67" width="270" height="6.83"/>
  <rect class="cls-1" x="373.33" y="314.56" width="7.89" height="51"/>
  <rect class="cls-1" x="381.22" y="359.33" width="11" height="6.22"/>
  <rect class="cls-1" x="409.22" y="314.56" width="8.11" height="51"/>
  <rect class="cls-1" x="438.33" y="314.56" width="7" height="51"/>
  <rect class="cls-1" x="456.22" y="314.56" width="7.22" height="51"/>
  <polygon class="cls-1" points="445.33 316.44 456.22 346.56 456.22 364 445.33 335.67 445.33 316.44"/>
  <rect class="cls-1" x="484.22" y="314.56" width="8" height="51"/>
  <rect class="cls-1" x="492.22" y="314.56" width="11" height="7"/>
  <rect class="cls-1" x="492.22" y="335.67" width="9.22" height="6.89"/>
  <rect class="cls-1" x="492.22" y="359.33" width="12.33" height="6.22"/>
  <polyline class="cls-1" points="172.22 286.67 262.67 57.78 274.44 57.78 364.44 286.67 354 286.67 268.33 69.11 182.89 286.67"/>
  <polyline class="cls-1" points="193.56 286.67 269.78 94.89 276.17 107.33 204.44 286.67"/>
  <polyline class="cls-1" points="215.56 286.67 280.89 121.11 286 134.67 227.56 286.67"/>
  <polyline class="cls-1" points="236.89 286.67 291.78 148.44 296.67 162.89 248 286.67"/>
  <polyline class="cls-1" points="283.33 209.78 318.22 209.78 322 219.78 280.44 219.78"/>
  <polyline class="cls-1" points="276.17 230.22 326.67 230.22 330 239.33 272.67 239.33"/>
  <polyline class="cls-1" points="264.22 259.56 338 259.56 334.22 249.78 268.33 249.78"/>
  <polyline class="cls-1" points="375.33 286.67 284.67 57.78 295.67 57.78 386.17 286.67"/>
  <polyline class="cls-1" points="396.42 286.67 306.33 57.78 317.32 57.78 407.31 286.67"/>
  <polyline class="cls-1" points="418.33 286.67 328.35 57.78 338.32 57.78 416.33 255.67 418.33 255.64 418.33 57.78 429.31 57.78 429.27 58.72 428.31 78.63 428.33 286.67"/>
  <polyline class="cls-1" points="518.31 227.64 507.35 227.64 428.32 78.5 429.31 57.78"/>
  <polyline class="cls-1" points="438.33 286.67 437.36 110.61 448.33 128.67 448.33 286.75"/>
  <polyline class="cls-1" points="457.5 148.44 468.33 166.79 468.29 286.75 457.29 286.67"/>
  <polyline class="cls-1" points="477.33 186.67 488.33 204.75 488.33 286.75 477.33 286.67"/>
  <polyline class="cls-1" points="441.35 57.78 452.31 57.78 541.28 227.64 529.44 227.64"/>
  <polyline class="cls-1" points="463.39 57.78 474.25 57.78 557.32 215.67 559.34 215.67 641.78 57.78 653.31 57.78 643.33 77.65 564.33 227.64 552.36 227.64"/>
  <polyline class="cls-1" points="596.44 57.78 607.33 57.78 544.94 176.17 539.35 166.42"/>
  <polyline class="cls-1" points="619.39 57.78 630.22 57.78 556.29 197.54 550.88 188.08"/>
  <polyline class="cls-1" points="583.33 202.72 593.31 185.67 593.31 286.75 583.33 286.75"/>
  <polyline class="cls-1" points="603.33 163.67 613.25 146.67 613.25 286.67 603.33 286.75"/>
  <polyline class="cls-1" points="623.29 126.79 633.29 109.71 633.33 286.75 623.29 286.75"/>
  <polyline class="cls-1" points="643.33 77.65 653.31 57.78 653.33 286.75 643.33 286.67"/>
</symbol>
<symbol id="icon_arrow-left" viewBox="0 0 25 12">
  <path d="M0.505026 5.50539C0.231659 5.77876 0.231659 6.22197 0.505026 6.49534L4.9598 10.9501C5.23317 11.2235 5.67638 11.2235 5.94975 10.9501C6.22311 10.6767 6.22311 10.2335 5.94975 9.96016L1.98995 6.00037L5.94975 2.04057C6.22311 1.7672 6.22311 1.32399 5.94975 1.05062C5.67638 0.777252 5.23317 0.777252 4.9598 1.05062L0.505026 5.50539ZM25 5.30037H1V6.70037H25V5.30037Z"></path>
</symbol>
<symbol id="icon_arrow-right" viewBox="0 0 25 12">
  <path d="M24.495 6.49498C24.7683 6.22161 24.7683 5.77839 24.495 5.50503L20.0402 1.05025C19.7668 0.776887 19.3236 0.776887 19.0503 1.05025C18.7769 1.32362 18.7769 1.76684 19.0503 2.0402L23.01 6L19.0503 9.9598C18.7769 10.2332 18.7769 10.6764 19.0503 10.9497C19.3236 11.2231 19.7668 11.2231 20.0402 10.9497L24.495 6.49498ZM-6.11959e-08 6.7L24 6.7L24 5.3L6.11959e-08 5.3L-6.11959e-08 6.7Z"></path>
</symbol>
</defs>
</svg>
