<svg id="_Слой_1" data-name="Слой 1" xmlns="http://www.w3.org/2000/svg" viewBox="0 0 128 128"><defs><style>.cls-1{fill:#fff}</style></defs><path class="cls-1" d="M53.98 88.32h1.86v12.02h-1.86zM55.84 98.88h2.59v1.47h-2.59zM62.45 88.32h1.91v12.02h-1.91zM69.31 88.32h1.65v12.02h-1.65zM73.53 88.32h1.7v12.02h-1.7z"/><path class="cls-1" d="m70.96 88.77 2.57 7.1v4.11l-2.57-6.68v-4.53zM80.13 88.32h1.89v12.02h-1.89z"/><path class="cls-1" d="M82.01 88.32h2.59v1.65h-2.59zM82.01 93.3h2.17v1.62h-2.17zM82.01 98.88h2.91v1.47h-2.91zM6.57 81.75l21.32-53.97h2.78l21.22 53.97h-2.46l-20.2-51.3-20.15 51.3"/><path class="cls-1" d="m11.6 81.75 17.97-45.22 1.51 2.93-16.92 42.29M16.79 81.75l15.4-39.04 1.2 3.2-13.78 35.84M21.81 81.75l12.95-32.59 1.15 3.4-11.48 29.19M32.76 63.62h8.23l.89 2.36h-9.8M31.08 68.44h11.9l.79 2.14H30.25M28.26 75.35h17.39l-.89-2.3H29.23M54.45 81.75 33.08 27.78h2.59l21.34 53.97M59.43 81.75 38.19 27.78h2.59l21.21 53.97M64.59 81.75 43.38 27.78h2.35l18.39 46.66.47-.01V27.78h2.59l-.01.22-.22 4.7v49.05"/><path class="cls-1" d="M88.17 67.83h-2.59L66.95 32.67l.23-4.89M69.31 81.75l-.23-41.51 2.59 4.25v37.28M73.83 49.16l2.55 4.32-.01 28.29-2.59-.02M78.5 58.17l2.6 4.26v19.34l-2.6-.02M70.02 27.78h2.58l20.98 40.05h-2.79M75.22 27.78h2.56l19.58 37.23h.48l19.44-37.23H120l-2.36 4.68-18.62 35.37h-2.83"/><path class="cls-1" d="M106.59 27.78h2.56L94.44 55.69l-1.31-2.3M112 27.78h2.55L97.12 60.73l-1.28-2.23M103.5 61.95l2.35-4.02v23.84h-2.35M108.21 52.75l2.34-4.01v33.01l-2.34.02M112.92 44.05l2.36-4.03v41.75h-2.36M117.64 32.46l2.36-4.68v53.99l-2.36-.02"/></svg>