<svg aria-hidden="true" style="width:0;height:0;position:absolute;overflow:hidden" xmlns="http://www.w3.org/2000/svg"><defs><symbol id="icon_video" viewBox="0 0 32 32"><path d="M30 6h-.887c-.525 0-1.029.207-1.404.576L25 9.248V8a3 3 0 0 0-3-3H3C1.346 5 0 6.345 0 8v16a3 3 0 0 0 3 3h19c1.656 0 3-1.344 3-3v-1.221l2.709 2.672c.375.369.879.576 1.404.576H30a2 2 0 0 0 2-2V8a2 2 0 0 0-2-2zM3 25c-.552 0-1-.449-1-1V8a1 1 0 0 1 1-1h19c.551 0 1 .448 1 1v16c0 .551-.449 1-1 1H3zm27-.973h-1l-4-4V20l-1-1v-6l5-5h1v16.027z"/></symbol><symbol id="icon_coffee" viewBox="0 0 24 24"><path d="M19 15V9c.829 0 1.577.335 2.121.879S22 11.171 22 12s-.335 1.577-.879 2.121S19.829 15 19 15zM2 7a1 1 0 0 0-1 1v9c0 1.38.561 2.632 1.464 3.536S4.62 22 6 22h8c1.38 0 2.632-.561 3.536-1.464S19 18.38 19 17c1.38 0 2.632-.561 3.536-1.464S24 13.38 24 12s-.561-2.632-1.464-3.536S20.38 7 19 7h-1zm1 2h14v8c0 .829-.335 1.577-.879 2.121S14.829 20 14 20H6c-.829 0-1.577-.335-2.121-.879S3 17.829 3 17zm2-8v3a1 1 0 0 0 2 0V1a1 1 0 0 0-2 0zm4 0v3a1 1 0 0 0 2 0V1a1 1 0 0 0-2 0zm4 0v3a1 1 0 0 0 2 0V1a1 1 0 0 0-2 0z"/></symbol><symbol id="icon_maximize" viewBox="0 0 24 24"><path d="m18.586 4-5.293 5.293a.999.999 0 1 0 1.414 1.414L20 5.414V9a1 1 0 0 0 2 0V3a.995.995 0 0 0-.292-.706l-.002-.002A.996.996 0 0 0 21 2h-6a1 1 0 0 0 0 2zM5.414 20l5.293-5.293a.999.999 0 1 0-1.414-1.414L4 18.586V15a1 1 0 0 0-2 0v6a1 1 0 0 0 1 1h6a1 1 0 0 0 0-2z"/></symbol><symbol id="icon_users" viewBox="0 0 24 24"><path d="M18 21v-2c0-1.38-.561-2.632-1.464-3.536S14.38 14 13 14H5c-1.38 0-2.632.561-3.536 1.464S0 17.62 0 19v2a1 1 0 0 0 2 0v-2c0-.829.335-1.577.879-2.121S4.171 16 5 16h8c.829 0 1.577.335 2.121.879S16 18.171 16 19v2a1 1 0 0 0 2 0zM14 7c0-1.38-.561-2.632-1.464-3.536S10.38 2 9 2s-2.632.561-3.536 1.464S4 5.62 4 7s.561 2.632 1.464 3.536S7.62 12 9 12s2.632-.561 3.536-1.464S14 8.38 14 7zm-2 0c0 .829-.335 1.577-.879 2.121S9.829 10 9 10s-1.577-.335-2.121-.879S6 7.829 6 7s.335-1.577.879-2.121S8.171 4 9 4s1.577.335 2.121.879S12 6.171 12 7zm12 14v-2a4.972 4.972 0 0 0-1.215-3.261 5.055 5.055 0 0 0-2.529-1.576 1 1 0 1 0-.511 1.933 3.049 3.049 0 0 1 1.528.952c.454.526.726 1.206.727 1.952v2a1 1 0 0 0 2 0zM15.752 4.099c.803.206 1.445.715 1.837 1.377s.531 1.47.325 2.273a2.969 2.969 0 0 1-1.105 1.652 3.08 3.08 0 0 1-1.063.511 1 1 0 1 0 .508 1.934 5.074 5.074 0 0 0 1.752-.844 4.965 4.965 0 0 0 1.845-2.758c.342-1.337.11-2.689-.542-3.788s-1.725-1.953-3.062-2.296a1 1 0 0 0-.496 1.938z"/></symbol><symbol id="icon_whatsapp" viewBox="0 0 24 28"><path d="M15.391 15.219c.266 0 2.812 1.328 2.922 1.516.031.078.031.172.031.234 0 .391-.125.828-.266 1.188-.359.875-1.813 1.437-2.703 1.437-.75 0-2.297-.656-2.969-.969-2.234-1.016-3.625-2.75-4.969-4.734-.594-.875-1.125-1.953-1.109-3.031v-.125c.031-1.031.406-1.766 1.156-2.469.234-.219.484-.344.812-.344.187 0 .375.047.578.047.422 0 .5.125.656.531.109.266.906 2.391.906 2.547 0 .594-1.078 1.266-1.078 1.625 0 .078.031.156.078.234.344.734 1 1.578 1.594 2.141.719.688 1.484 1.141 2.359 1.578a.681.681 0 0 0 .344.109c.469 0 1.25-1.516 1.656-1.516zM12.219 23.5c5.406 0 9.812-4.406 9.812-9.812s-4.406-9.812-9.812-9.812-9.812 4.406-9.812 9.812c0 2.063.656 4.078 1.875 5.75l-1.234 3.641 3.781-1.203a9.875 9.875 0 0 0 5.391 1.625zm0-21.594C18.719 1.906 24 7.187 24 13.687s-5.281 11.781-11.781 11.781c-1.984 0-3.953-.5-5.703-1.469L0 26.093l2.125-6.328a11.728 11.728 0 0 1-1.687-6.078c0-6.5 5.281-11.781 11.781-11.781z"/></symbol><symbol id="icon_vk" viewBox="0 0 31 28"><path d="M29.953 8.125c.234.641-.5 2.141-2.344 4.594-3.031 4.031-3.359 3.656-.859 5.984 2.406 2.234 2.906 3.313 2.984 3.453 0 0 1 1.75-1.109 1.766l-4 .063c-.859.172-2-.609-2-.609-1.5-1.031-2.906-3.703-4-3.359 0 0-1.125.359-1.094 2.766.016.516-.234.797-.234.797s-.281.297-.828.344h-1.797c-3.953.25-7.438-3.391-7.438-3.391S3.421 16.595.078 8.736c-.219-.516.016-.766.016-.766s.234-.297.891-.297l4.281-.031c.406.063.688.281.688.281s.25.172.375.5c.703 1.75 1.609 3.344 1.609 3.344 1.563 3.219 2.625 3.766 3.234 3.437 0 0 .797-.484.625-4.375-.063-1.406-.453-2.047-.453-2.047-.359-.484-1.031-.625-1.328-.672-.234-.031.156-.594.672-.844.766-.375 2.125-.391 3.734-.375 1.266.016 1.625.094 2.109.203 1.484.359.984 1.734.984 5.047 0 1.062-.203 2.547.562 3.031.328.219 1.141.031 3.141-3.375 0 0 .938-1.625 1.672-3.516.125-.344.391-.484.391-.484s.25-.141.594-.094l4.5-.031c1.359-.172 1.578.453 1.578.453z"/></symbol><symbol id="icon_hotel" viewBox="0 0 873.33 388"><defs><style>.cls-1{fill:#fff}</style></defs><path class="cls-1" d="M6.17 337.67h270v6.83h-270zM596.83 337.67h270v6.83h-270zM373.33 314.56h7.89v51h-7.89zM381.22 359.33h11v6.22h-11zM409.22 314.56h8.11v51h-8.11zM438.33 314.56h7v51h-7zM456.22 314.56h7.22v51h-7.22zM445.33 316.44l10.89 30.12V364l-10.89-28.33v-19.23zM484.22 314.56h8v51h-8zM492.22 314.56h11v7h-11zM492.22 335.67h9.22v6.89h-9.22zM492.22 359.33h12.33v6.22h-12.33zM172.22 286.67l90.45-228.89h11.77l90 228.89H354L268.33 69.11l-85.44 217.56"/><path class="cls-1" d="m193.56 286.67 76.22-191.78 6.39 12.44-71.73 179.34M215.56 286.67l65.33-165.56 5.11 13.56-58.44 152M236.89 286.67l54.89-138.23 4.89 14.45L248 286.67M283.33 209.78h34.89l3.78 10h-41.56M276.17 230.22h50.5l3.33 9.11h-57.33M264.22 259.56H338l-3.78-9.78h-65.89M375.33 286.67 284.67 57.78h11l90.5 228.89M396.42 286.67 306.33 57.78h10.99l89.99 228.89M418.33 286.67 328.35 57.78h9.97l78.01 197.89 2-.03V57.78h10.98l-.04.94-.96 19.91.02 208.04"/><path class="cls-1" d="M518.31 227.64h-10.96L428.32 78.5l.99-20.72M438.33 286.67l-.97-176.06 10.97 18.06v158.08M457.5 148.44l10.83 18.35-.04 119.96-11-.08M477.33 186.67l11 18.08v82l-11-.08M441.35 57.78h10.96l88.97 169.86h-11.84M463.39 57.78h10.86l83.07 157.89h2.02l82.44-157.89h11.53l-9.98 19.87-79 149.99h-11.97"/><path class="cls-1" d="M596.44 57.78h10.89l-62.39 118.39-5.59-9.75M619.39 57.78h10.83l-73.93 139.76-5.41-9.46M583.33 202.72l9.98-17.05v101.08h-9.98M603.33 163.67l9.92-17v140l-9.92.08M623.29 126.79l10-17.08.04 177.04h-10.04M643.33 77.65l9.98-19.87.02 228.97-10-.08"/></symbol><symbol id="icon_arrow-left" viewBox="0 0 25 12"><path d="M.505 5.505a.7.7 0 0 0 0 .99L4.96 10.95a.7.7 0 1 0 .99-.99L1.99 6l3.96-3.96a.7.7 0 0 0-.99-.99L.505 5.506ZM25 5.3H1v1.4h24V5.3Z"/></symbol><symbol id="icon_arrow-right" viewBox="0 0 25 12"><path d="M24.495 6.495a.7.7 0 0 0 0-.99L20.04 1.05a.7.7 0 1 0-.99.99L23.01 6l-3.96 3.96a.7.7 0 1 0 .99.99l4.455-4.455ZM0 6.7h24V5.3H0v1.4Z"/></symbol></defs></svg>